{"title":"Better Call Saul S03E08 720p HDTV HEVC 2CH x265","magnet":"magnet:?xt=urn:btih:1aa05f21539ca27fb70c0090bb447fe05c01cb87&dn=Better+Call+Saul+S03E08+720p+HDTV+HEVC+2CH+x265&tr=udp%3A%2F%2Ftracker.leechers-paradise.org%3A6969&tr=udp%3A%2F%2Fzer0day.ch%3A1337&tr=udp%3A%2F%2Fopen.demonii.com%3A1337&tr=udp%3A%2F%2Ftracker.coppersurfer.tk%3A6969&tr=udp%3A%2F%2Fexodus.desync.com%3A6969","uploader":"nayhtut","categoryP":"video","categoryS":"hd___tv_shows","size":"392031529","seeders":"0","leechers":"0","description":"Source: Better Call Saul S03E08 720p HDTV x264-FLEET (1.01 GB)\r\n\r\n\r\nComplete name: Better.Call.Saul.S03E08.720p.HDTV.HEVC.2CH.x265.mkv\r\nFormat                                   : Matroska\r\nFormat version                           : Version 4 / Version 2\r\nFile size                                : 374 MiB\r\nDuration                                 : 48mn 22s\r\nOverall bit rate                         : 1 080 Kbps\r\nWriting application                      : Lavf57.25.100\r\n\r\nVideo\r\n\r\nID                                       : 1\r\nFormat                                   : V_MPEGH/ISO/HEVC\r\nDuration                                 : 48mn 22s\r\nBit rate                                 : 835 Kbps\r\nWidth                                    : 1 280 pixels\r\nHeight                                   : 720 pixels\r\nDisplay aspect ratio                     : 16:9\r\nFrame rate                               : 25.000 fps\r\nBits/(Pixel*Frame)                       : 0.036\r\nStream size                              : 289 MiB (77%)\r\nDefault                                  : Yes\r\nForced                                   : No\r\nDURATION                                 : 00:48:22.771000000\r\n\r\nAudio\r\n\r\nID                                       : 2\r\nFormat                                   : AC-3\r\nFormat/Info                              : Audio Coding 3\r\nMode extension                           : CM (complete main)\r\nFormat settings, Endianness              : Big\r\nCodec ID                                 : A_AC3\r\nDuration                                 : 48mn 22s\r\nBit rate mode                            : Constant\r\nBit rate                                 : 224 Kbps\r\nChannel(s)                               : 2 channels\r\nChannel positions                        : Front: L R\r\nSampling rate                            : 48.0 KHz\r\nBit depth                                : 32 bits\r\nCompression mode                         : Lossy\r\nStream size                              : 77.5 MiB (21%)\r\nWriting library                          : Lavc57.24.102 ac3\r\nDefault                                  : Yes\r\nForced                                   : No\r\nDURATION                                 : 00:48:22.847000000\r\n\r\nText\r\n\r\nID                                       : 3\r\nCodec ID                                 : S_TEXT/ASS\r\nLanguage                                 : English\r\nDefault                                  : Yes","last_updated":"2017-06-06T12:02:57.387Z","parsed":{"xt":"urn:btih:1aa05f21539ca27fb70c0090bb447fe05c01cb87","dn":"Better Call Saul S03E08 720p HDTV HEVC 2CH x265","tr":["udp://exodus.desync.com:6969","udp://open.demonii.com:1337","udp://tracker.coppersurfer.tk:6969","udp://tracker.leechers-paradise.org:6969","udp://zer0day.ch:1337"],"infoHash":"1aa05f21539ca27fb70c0090bb447fe05c01cb87","infoHashBuffer":{"type":"Buffer","data":[26,160,95,33,83,156,162,127,183,12,0,144,187,68,127,224,92,1,203,135]},"name":"Better Call Saul S03E08 720p HDTV HEVC 2CH x265","announce":["udp://exodus.desync.com:6969","udp://open.demonii.com:1337","udp://tracker.coppersurfer.tk:6969","udp://tracker.leechers-paradise.org:6969","udp://zer0day.ch:1337"],"urlList":[]}}